<svg xmlns="http://www.w3.org/2000/svg" xmlns:xlink="http://www.w3.org/1999/xlink" width="500" zoomAndPan="magnify" viewBox="0 0 375 374.999991" height="500" preserveAspectRatio="xMidYMid meet" version="1.0"><defs><g/><clipPath id="4f60c7656b"><path d="M 75 0 L 300 0 C 341.421875 0 375 33.578125 375 75 L 375 300 C 375 341.421875 341.421875 375 300 375 L 75 375 C 33.578125 375 0 341.421875 0 300 L 0 75 C 0 33.578125 33.578125 0 75 0 Z M 75 0 " clip-rule="nonzero"/></clipPath></defs><rect x="-37.5" width="450" fill="#ffffff" y="-37.499999" height="449.999989" fill-opacity="1"/><rect x="-37.5" width="450" fill="#ffffff" y="-37.499999" height="449.999989" fill-opacity="1"/><g clip-path="url(#4f60c7656b)"><rect x="-37.5" width="450" fill="#000000" y="-37.499999" height="449.999989" fill-opacity="1"/></g><g fill="#fafafa" fill-opacity="1"><g transform="translate(91.431476, 146.56307)"><g><path d="M 72.546875 -41.578125 L 72.546875 -25.46875 C 70.617188 -16.644531 66.414062 -9.96875 59.9375 -5.4375 C 53.457031 -0.914062 46.226562 1.34375 38.25 1.34375 C 28.226562 1.34375 19.691406 -2.40625 12.640625 -9.90625 C 5.585938 -17.40625 2.0625 -26.460938 2.0625 -37.078125 C 2.0625 -47.878906 5.507812 -57 12.40625 -64.4375 C 19.3125 -71.875 27.925781 -75.59375 38.25 -75.59375 C 50.3125 -75.59375 59.851562 -71.363281 66.875 -62.90625 L 55.796875 -50.765625 C 51.835938 -57.117188 46.316406 -60.296875 39.234375 -60.296875 C 34.015625 -60.296875 29.5625 -58.03125 25.875 -53.5 C 22.1875 -48.96875 20.34375 -43.492188 20.34375 -37.078125 C 20.34375 -30.773438 22.1875 -25.390625 25.875 -20.921875 C 29.5625 -16.453125 34.015625 -14.21875 39.234375 -14.21875 C 43.554688 -14.21875 47.320312 -15.519531 50.53125 -18.125 C 53.738281 -20.738281 55.34375 -24.207031 55.34375 -28.53125 L 38.25 -28.53125 L 38.25 -41.578125 Z M 72.546875 -41.578125 "/></g></g></g><g fill="#fafafa" fill-opacity="1"><g transform="translate(161.531804, 146.56307)"><g><path d="M 47.875 -74.25 L 47.875 -59.40625 L 22.3125 -59.40625 L 22.3125 -44.640625 L 46.796875 -44.640625 L 46.796875 -29.796875 L 22.3125 -29.796875 L 22.3125 -14.84375 L 47.875 -14.84375 L 47.875 0 L 5.40625 0 L 5.40625 -74.25 Z M 47.875 -74.25 "/></g></g></g><g fill="#fafafa" fill-opacity="1"><g transform="translate(209.225048, 146.56307)"><g><path d="M 22.3125 -46.078125 L 22.3125 0 L 5.40625 0 L 5.40625 -74.25 L 22.3125 -74.25 L 51.84375 -28.171875 L 52.015625 -28.171875 L 52.015625 -74.25 L 68.9375 -74.25 L 68.9375 0 L 52.015625 0 L 22.5 -46.078125 Z M 22.3125 -46.078125 "/></g></g></g><g fill="#fafafa" fill-opacity="1"><g transform="translate(72.700321, 271.187385)"><g><path d="M 0.859375 -71.28125 L 0.859375 -89.09375 L 63.5 -89.09375 L 63.5 -71.28125 L 42.34375 -71.28125 L 42.34375 0 L 22.03125 0 L 22.03125 -71.28125 Z M 0.859375 -71.28125 "/></g></g></g><g fill="#fafafa" fill-opacity="1"><g transform="translate(131.661531, 271.187385)"><g><path d="M 2.484375 -44.609375 C 2.484375 -57.492188 6.875 -68.398438 15.65625 -77.328125 C 24.445312 -86.253906 35.03125 -90.71875 47.40625 -90.71875 C 59.863281 -90.71875 70.445312 -86.269531 79.15625 -77.375 C 87.875 -68.488281 92.234375 -57.566406 92.234375 -44.609375 C 92.234375 -31.578125 87.945312 -20.613281 79.375 -11.71875 C 70.8125 -2.820312 60.15625 1.625 47.40625 1.625 C 34.375 1.625 23.628906 -2.785156 15.171875 -11.609375 C 6.710938 -20.429688 2.484375 -31.429688 2.484375 -44.609375 Z M 24.40625 -44.609375 C 24.40625 -39.921875 25.125 -35.648438 26.5625 -31.796875 C 28.007812 -27.953125 30.53125 -24.695312 34.125 -22.03125 C 37.726562 -19.363281 42.15625 -18.03125 47.40625 -18.03125 C 54.96875 -18.03125 60.675781 -20.625 64.53125 -25.8125 C 68.382812 -31 70.3125 -37.265625 70.3125 -44.609375 C 70.3125 -51.878906 68.347656 -58.125 64.421875 -63.34375 C 60.492188 -68.5625 54.820312 -71.171875 47.40625 -71.171875 C 40.0625 -71.171875 34.390625 -68.5625 30.390625 -63.34375 C 26.398438 -58.125 24.40625 -51.878906 24.40625 -44.609375 Z M 24.40625 -44.609375 "/></g></g></g><g fill="#fafafa" fill-opacity="1"><g transform="translate(220.967436, 271.187385)"><g><path d="M 53.890625 -18.359375 C 56.984375 -18.359375 59.988281 -18.828125 62.90625 -19.765625 C 65.820312 -20.703125 67.96875 -21.601562 69.34375 -22.46875 L 71.390625 -23.875 L 80.03125 -6.59375 C 79.738281 -6.375 79.335938 -6.082031 78.828125 -5.71875 C 78.328125 -5.363281 77.160156 -4.695312 75.328125 -3.71875 C 73.492188 -2.75 71.53125 -1.90625 69.4375 -1.1875 C 67.351562 -0.46875 64.617188 0.175781 61.234375 0.75 C 57.847656 1.332031 54.359375 1.625 50.765625 1.625 C 42.484375 1.625 34.632812 -0.40625 27.21875 -4.46875 C 19.800781 -8.539062 13.820312 -14.140625 9.28125 -21.265625 C 4.75 -28.398438 2.484375 -36.109375 2.484375 -44.390625 C 2.484375 -50.648438 3.8125 -56.660156 6.46875 -62.421875 C 9.132812 -68.179688 12.679688 -73.113281 17.109375 -77.21875 C 21.546875 -81.320312 26.710938 -84.597656 32.609375 -87.046875 C 38.515625 -89.492188 44.566406 -90.71875 50.765625 -90.71875 C 56.523438 -90.71875 61.832031 -90.03125 66.6875 -88.65625 C 71.550781 -87.289062 74.988281 -85.925781 77 -84.5625 L 80.03125 -82.515625 L 71.390625 -65.234375 C 70.878906 -65.660156 70.117188 -66.179688 69.109375 -66.796875 C 68.109375 -67.410156 66.09375 -68.21875 63.0625 -69.21875 C 60.039062 -70.226562 56.984375 -70.734375 53.890625 -70.734375 C 48.992188 -70.734375 44.601562 -69.941406 40.71875 -68.359375 C 36.832031 -66.773438 33.753906 -64.6875 31.484375 -62.09375 C 29.210938 -59.507812 27.484375 -56.722656 26.296875 -53.734375 C 25.109375 -50.742188 24.515625 -47.703125 24.515625 -44.609375 C 24.515625 -37.835938 27.050781 -31.769531 32.125 -26.40625 C 37.207031 -21.039062 44.460938 -18.359375 53.890625 -18.359375 Z M 53.890625 -18.359375 "/></g></g></g></svg>