<svg xmlns="http://www.w3.org/2000/svg" xmlns:xlink="http://www.w3.org/1999/xlink" width="500" zoomAndPan="magnify" viewBox="0 0 375 374.999991" height="500" preserveAspectRatio="xMidYMid meet" version="1.0"><defs><g/><clipPath id="b5aaa47f2e"><path d="M 75 0 L 300 0 C 341.421875 0 375 33.578125 375 75 L 375 300 C 375 341.421875 341.421875 375 300 375 L 75 375 C 33.578125 375 0 341.421875 0 300 L 0 75 C 0 33.578125 33.578125 0 75 0 Z M 75 0 " clip-rule="nonzero"/></clipPath></defs><rect x="-37.5" width="450" fill="#ffffff" y="-37.499999" height="449.999989" fill-opacity="1"/><rect x="-37.5" width="450" fill="#ffffff" y="-37.499999" height="449.999989" fill-opacity="1"/><g clip-path="url(#b5aaa47f2e)"><rect x="-37.5" width="450" fill="#000000" y="-37.499999" height="449.999989" fill-opacity="1"/></g><g fill="#fafafa" fill-opacity="1"><g transform="translate(91.431476, 167.937119)"><g><path d="M 72.546875 -41.578125 L 72.546875 -25.46875 C 70.617188 -16.644531 66.414062 -9.96875 59.9375 -5.4375 C 53.457031 -0.914062 46.226562 1.34375 38.25 1.34375 C 28.226562 1.34375 19.691406 -2.40625 12.640625 -9.90625 C 5.585938 -17.40625 2.0625 -26.460938 2.0625 -37.078125 C 2.0625 -47.878906 5.507812 -57 12.40625 -64.4375 C 19.3125 -71.875 27.925781 -75.59375 38.25 -75.59375 C 50.3125 -75.59375 59.851562 -71.363281 66.875 -62.90625 L 55.796875 -50.765625 C 51.835938 -57.117188 46.316406 -60.296875 39.234375 -60.296875 C 34.015625 -60.296875 29.5625 -58.03125 25.875 -53.5 C 22.1875 -48.96875 20.34375 -43.492188 20.34375 -37.078125 C 20.34375 -30.773438 22.1875 -25.390625 25.875 -20.921875 C 29.5625 -16.453125 34.015625 -14.21875 39.234375 -14.21875 C 43.554688 -14.21875 47.320312 -15.519531 50.53125 -18.125 C 53.738281 -20.738281 55.34375 -24.207031 55.34375 -28.53125 L 38.25 -28.53125 L 38.25 -41.578125 Z M 72.546875 -41.578125 "/></g></g></g><g fill="#fafafa" fill-opacity="1"><g transform="translate(161.531804, 167.937119)"><g><path d="M 47.875 -74.25 L 47.875 -59.40625 L 22.3125 -59.40625 L 22.3125 -44.640625 L 46.796875 -44.640625 L 46.796875 -29.796875 L 22.3125 -29.796875 L 22.3125 -14.84375 L 47.875 -14.84375 L 47.875 0 L 5.40625 0 L 5.40625 -74.25 Z M 47.875 -74.25 "/></g></g></g><g fill="#fafafa" fill-opacity="1"><g transform="translate(209.225048, 167.937119)"><g><path d="M 22.3125 -46.078125 L 22.3125 0 L 5.40625 0 L 5.40625 -74.25 L 22.3125 -74.25 L 51.84375 -28.171875 L 52.015625 -28.171875 L 52.015625 -74.25 L 68.9375 -74.25 L 68.9375 0 L 52.015625 0 L 22.5 -46.078125 Z M 22.3125 -46.078125 "/></g></g></g><g fill="#fafafa" fill-opacity="1"><g transform="translate(20.596228, 261.062371)"><g><path d="M 26.203125 -60.484375 C 29.421875 -60.484375 32.566406 -60.015625 35.640625 -59.078125 C 38.710938 -58.140625 40.992188 -57.210938 42.484375 -56.296875 L 44.640625 -54.859375 L 39.171875 -44.0625 C 38.734375 -44.351562 38.128906 -44.722656 37.359375 -45.171875 C 36.597656 -45.628906 35.160156 -46.242188 33.046875 -47.015625 C 30.929688 -47.785156 28.960938 -48.171875 27.140625 -48.171875 C 24.890625 -48.171875 23.148438 -47.6875 21.921875 -46.71875 C 20.703125 -45.757812 20.09375 -44.46875 20.09375 -42.84375 C 20.09375 -42.019531 20.378906 -41.257812 20.953125 -40.5625 C 21.523438 -39.875 22.503906 -39.132812 23.890625 -38.34375 C 25.285156 -37.550781 26.507812 -36.914062 27.5625 -36.4375 C 28.625 -35.957031 30.257812 -35.234375 32.46875 -34.265625 C 36.3125 -32.640625 39.585938 -30.421875 42.296875 -27.609375 C 45.015625 -24.804688 46.375 -21.628906 46.375 -18.078125 C 46.375 -14.660156 45.757812 -11.679688 44.53125 -9.140625 C 43.3125 -6.597656 41.628906 -4.609375 39.484375 -3.171875 C 37.347656 -1.734375 34.984375 -0.664062 32.390625 0.03125 C 29.804688 0.726562 27 1.078125 23.96875 1.078125 C 21.382812 1.078125 18.84375 0.8125 16.34375 0.28125 C 13.84375 -0.238281 11.753906 -0.894531 10.078125 -1.6875 C 8.398438 -2.476562 6.890625 -3.257812 5.546875 -4.03125 C 4.203125 -4.800781 3.21875 -5.445312 2.59375 -5.96875 L 1.65625 -6.765625 L 8.421875 -18.140625 C 8.992188 -17.660156 9.785156 -17.046875 10.796875 -16.296875 C 11.804688 -15.554688 13.59375 -14.5625 16.15625 -13.3125 C 18.726562 -12.070312 21 -11.453125 22.96875 -11.453125 C 28.675781 -11.453125 31.53125 -13.394531 31.53125 -17.28125 C 31.53125 -18.09375 31.328125 -18.847656 30.921875 -19.546875 C 30.515625 -20.242188 29.796875 -20.941406 28.765625 -21.640625 C 27.734375 -22.335938 26.820312 -22.890625 26.03125 -23.296875 C 25.238281 -23.703125 23.941406 -24.320312 22.140625 -25.15625 C 20.335938 -26 19.003906 -26.640625 18.140625 -27.078125 C 14.546875 -28.847656 11.765625 -31.066406 9.796875 -33.734375 C 7.828125 -36.398438 6.84375 -39.269531 6.84375 -42.34375 C 6.84375 -47.664062 8.804688 -52.019531 12.734375 -55.40625 C 16.671875 -58.789062 21.160156 -60.484375 26.203125 -60.484375 Z M 26.203125 -60.484375 "/></g></g></g><g fill="#fafafa" fill-opacity="1"><g transform="translate(65.380055, 261.062371)"><g><path d="M 17.859375 -36.859375 L 17.859375 0 L 4.3125 0 L 4.3125 -59.40625 L 17.859375 -59.40625 L 41.46875 -22.53125 L 41.609375 -22.53125 L 41.609375 -59.40625 L 55.15625 -59.40625 L 55.15625 0 L 41.609375 0 L 18 -36.859375 Z M 17.859375 -36.859375 "/></g></g></g><g fill="#fafafa" fill-opacity="1"><g transform="translate(121.25187, 261.062371)"><g><path d="M 17.859375 -59.40625 L 17.859375 0 L 4.3125 0 L 4.3125 -59.40625 Z M 17.859375 -59.40625 "/></g></g></g><g fill="#fafafa" fill-opacity="1"><g transform="translate(139.827713, 261.062371)"><g><path d="M 4.3125 -59.40625 L 25.984375 -59.40625 C 32.035156 -59.40625 36.929688 -57.84375 40.671875 -54.71875 C 44.421875 -51.601562 46.296875 -47.066406 46.296875 -41.109375 C 46.296875 -35.160156 44.398438 -30.492188 40.609375 -27.109375 C 36.816406 -23.722656 31.941406 -22.03125 25.984375 -22.03125 L 17.859375 -22.03125 L 17.859375 0 L 4.3125 0 Z M 17.859375 -32.828125 L 21.671875 -32.828125 C 24.691406 -32.828125 27.175781 -33.4375 29.125 -34.65625 C 31.070312 -35.882812 32.046875 -37.894531 32.046875 -40.6875 C 32.046875 -43.507812 31.070312 -45.53125 29.125 -46.75 C 27.175781 -47.976562 24.691406 -48.59375 21.671875 -48.59375 L 17.859375 -48.59375 Z M 17.859375 -32.828125 "/></g></g></g><g fill="#fafafa" fill-opacity="1"><g transform="translate(184.179539, 261.062371)"><g><path d="M 4.3125 -59.40625 L 25.984375 -59.40625 C 32.035156 -59.40625 36.929688 -57.84375 40.671875 -54.71875 C 44.421875 -51.601562 46.296875 -47.066406 46.296875 -41.109375 C 46.296875 -35.160156 44.398438 -30.492188 40.609375 -27.109375 C 36.816406 -23.722656 31.941406 -22.03125 25.984375 -22.03125 L 17.859375 -22.03125 L 17.859375 0 L 4.3125 0 Z M 17.859375 -32.828125 L 21.671875 -32.828125 C 24.691406 -32.828125 27.175781 -33.4375 29.125 -34.65625 C 31.070312 -35.882812 32.046875 -37.894531 32.046875 -40.6875 C 32.046875 -43.507812 31.070312 -45.53125 29.125 -46.75 C 27.175781 -47.976562 24.691406 -48.59375 21.671875 -48.59375 L 17.859375 -48.59375 Z M 17.859375 -32.828125 "/></g></g></g><g fill="#fafafa" fill-opacity="1"><g transform="translate(228.531354, 261.062371)"><g><path d="M 38.296875 -59.40625 L 38.296875 -47.515625 L 17.859375 -47.515625 L 17.859375 -35.71875 L 37.4375 -35.71875 L 37.4375 -23.828125 L 17.859375 -23.828125 L 17.859375 -11.875 L 38.296875 -11.875 L 38.296875 0 L 4.3125 0 L 4.3125 -59.40625 Z M 38.296875 -59.40625 "/></g></g></g><g fill="#fafafa" fill-opacity="1"><g transform="translate(266.691172, 261.062371)"><g><path d="M 0.578125 -47.515625 L 0.578125 -59.40625 L 42.34375 -59.40625 L 42.34375 -47.515625 L 28.21875 -47.515625 L 28.21875 0 L 14.6875 0 L 14.6875 -47.515625 Z M 0.578125 -47.515625 "/></g></g></g><g fill="#fafafa" fill-opacity="1"><g transform="translate(306.002998, 261.062371)"><g><path d="M 26.203125 -60.484375 C 29.421875 -60.484375 32.566406 -60.015625 35.640625 -59.078125 C 38.710938 -58.140625 40.992188 -57.210938 42.484375 -56.296875 L 44.640625 -54.859375 L 39.171875 -44.0625 C 38.734375 -44.351562 38.128906 -44.722656 37.359375 -45.171875 C 36.597656 -45.628906 35.160156 -46.242188 33.046875 -47.015625 C 30.929688 -47.785156 28.960938 -48.171875 27.140625 -48.171875 C 24.890625 -48.171875 23.148438 -47.6875 21.921875 -46.71875 C 20.703125 -45.757812 20.09375 -44.46875 20.09375 -42.84375 C 20.09375 -42.019531 20.378906 -41.257812 20.953125 -40.5625 C 21.523438 -39.875 22.503906 -39.132812 23.890625 -38.34375 C 25.285156 -37.550781 26.507812 -36.914062 27.5625 -36.4375 C 28.625 -35.957031 30.257812 -35.234375 32.46875 -34.265625 C 36.3125 -32.640625 39.585938 -30.421875 42.296875 -27.609375 C 45.015625 -24.804688 46.375 -21.628906 46.375 -18.078125 C 46.375 -14.660156 45.757812 -11.679688 44.53125 -9.140625 C 43.3125 -6.597656 41.628906 -4.609375 39.484375 -3.171875 C 37.347656 -1.734375 34.984375 -0.664062 32.390625 0.03125 C 29.804688 0.726562 27 1.078125 23.96875 1.078125 C 21.382812 1.078125 18.84375 0.8125 16.34375 0.28125 C 13.84375 -0.238281 11.753906 -0.894531 10.078125 -1.6875 C 8.398438 -2.476562 6.890625 -3.257812 5.546875 -4.03125 C 4.203125 -4.800781 3.21875 -5.445312 2.59375 -5.96875 L 1.65625 -6.765625 L 8.421875 -18.140625 C 8.992188 -17.660156 9.785156 -17.046875 10.796875 -16.296875 C 11.804688 -15.554688 13.59375 -14.5625 16.15625 -13.3125 C 18.726562 -12.070312 21 -11.453125 22.96875 -11.453125 C 28.675781 -11.453125 31.53125 -13.394531 31.53125 -17.28125 C 31.53125 -18.09375 31.328125 -18.847656 30.921875 -19.546875 C 30.515625 -20.242188 29.796875 -20.941406 28.765625 -21.640625 C 27.734375 -22.335938 26.820312 -22.890625 26.03125 -23.296875 C 25.238281 -23.703125 23.941406 -24.320312 22.140625 -25.15625 C 20.335938 -26 19.003906 -26.640625 18.140625 -27.078125 C 14.546875 -28.847656 11.765625 -31.066406 9.796875 -33.734375 C 7.828125 -36.398438 6.84375 -39.269531 6.84375 -42.34375 C 6.84375 -47.664062 8.804688 -52.019531 12.734375 -55.40625 C 16.671875 -58.789062 21.160156 -60.484375 26.203125 -60.484375 Z M 26.203125 -60.484375 "/></g></g></g></svg>